<svg xmlns="http://www.w3.org/2000/svg" x="0px" y="0px" viewBox="0 0 1000 1000" fill="#fff">
<metadata> Svg Vector Icons : http://www.onlinewebfonts.com/icon </metadata>
<g><g transform="translate(0.000000,512.000000) scale(0.100000,-0.100000)"><path d="M1497.3,4998.5c-260.7-63.3-481.1-243.4-598-488.8l-69-145.7v-594.2c0-442.8,5.8-615.3,24.9-680.5c32.6-107.3,157.2-231.9,266.4-264.5c59.4-17.3,812.7-23,3285.4-23c3597.8,0,3275.8,13.4,3398.5-139.9l59.4-74.8l5.7-582.7l5.7-582.7h458.1h460v803.1c0,734.1-3.8,812.7-36.4,920.1c-72.9,237.7-214.7,392.9-448.5,500.3l-128.4,57.5V4019c0,270.3-5.8,335.4-40.2,435.1c-80.5,241.5-251.1,427.4-471.5,517.5l-111.2,44.1l-2980.6,3.8C2237.2,5021.5,1575.9,5017.6,1497.3,4998.5z M7523.7,4528.9c49.8-23,99.7-67.1,134.2-118.8c51.8-78.6,53.7-90.1,59.4-385.3l7.7-302.9H4669.6H1616.2l-95.8,46c-51.8,24.9-115,65.2-138,90.1c-151.4,164.8-128.4,473.4,44.1,603.8c139.9,107.3-21.1,101.6,3112.9,101.6C7351.2,4565.3,7445.1,4563.4,7523.7,4528.9z"/><path d="M820.7,754.7c1.9-1794.1,1.9-1799.9,95.8-1983.9c49.8-95.8,141.8-197.4,214.7-235.8c42.2-21.1,220.4-26.8,1008.2-26.8H3094l103.5,88.2c258.8,220.4,638.3,427.4,943.1,513.7c414,118.8,881.7,99.7,1282.3-51.7c266.4-101.6,588.5-291.4,780.1-463.9l95.8-86.3h557.8h557.8v381.4V-727l-483,5.8c-465.8,5.8-488.8,7.7-571.2,51.7C6249-612,6137.9-506.5,6086.1-408.8c-40.3,72.8-42.2,101.6-47.9,715c-5.8,726.5-1.9,759,134.2,914.3c42.2,47.9,122.7,111.2,176.3,139.9l97.7,51.8l504.1,5.7l502.2,5.8v458.1v460l-3204.9,3.8l-3206.8,5.7l-109.3,42.2l-111.2,42.2V754.7z"/><path d="M6517.4,938.7c-32.6-32.6-32.6-1148.2,0-1180.7c32.6-32.6,2604.9-32.6,2637.5,0c32.6,32.6,32.6,1148.1,0,1180.7C9122.3,971.3,6550,971.3,6517.4,938.7z M7355,616.7c218.5-111.2,214.7-438.9-5.8-538.6c-138-63.3-258.8-36.4-366.1,76.7c-51.8,55.6-57.5,74.7-57.5,189.8c0,151.4,34.5,210.8,153.3,272.2C7174.8,664.6,7261.1,664.6,7355,616.7z"/><path d="M7870.6-1217.6c-5.7-552-9.6-569.3-143.8-670.9l-69-53.7l-506-5.8l-504.1-5.8l67.1-132.2c70.9-139.9,149.5-389.1,172.5-542.4l13.4-90.1h665.1c732.2,0,780.1,5.7,945,115c47.9,32.6,118.8,103.5,155.3,159.1c122.7,180.2,128.4,224.3,128.4,1014V-725h-458.1h-460L7870.6-1217.6z"/><path d="M4391.7-1290.5c-1265.1-230-1866.9-1681-1134.7-2741c103.5-151.4,299-346.9,446.6-448.5c134.2-92,387.2-207,557.8-253c226.2-61.3,646-63.3,870.2-1.9c529,143.8,933.5,479.2,1159.7,964.1c132.2,283.7,155.2,398.7,155.2,755.2c0,231.9-9.6,337.3-34.5,431.3c-53.7,191.7-226.2,529-347,674.7C5656.7-1417,5008.9-1177.4,4391.7-1290.5z M4815.3-1873.2l59.4-59.4l5.8-431.3l5.8-429.4l448.5-5.8l450.4-5.7l61.3-63.3c53.7-53.7,63.3-74.8,63.3-157.2c0-82.4-9.6-103.5-63.3-157.2l-61.3-63.3l-450.4-5.7l-448.5-5.8l-5.8-429.4l-5.8-431.3l-63.3-61.3c-53.7-53.7-74.8-63.3-157.2-63.3c-82.4,0-103.5,9.6-157.2,63.3l-63.3,61.3l-5.7,431.3l-5.8,431.3h-389.1c-373.8,0-391,1.9-454.3,44.1c-92,61.3-128.4,170.6-88.2,266.4c57.5,136.1,103.5,149.5,544.4,149.5h387.2l5.8,429.4c5.7,429.4,5.7,431.3,53.7,481.1c63.3,69,109.3,88.2,199.3,78.6C4732.9-1811.9,4775-1832.9,4815.3-1873.2z"/><path d="M820.7-1840.6c0-67.1,9.6-159.1,21.1-207c53.7-235.8,251.1-496.4,458.1-605.7l105.4-55.6l540.5-5.7l540.5-5.8l9.6,44.1c5.8,24.9,19.2,93.9,32.6,157.2c30.7,159.1,101.6,348.8,205.1,554c3.8,7.7-343.1,13.4-772.5,13.4c-555.9,0-791.6,5.7-820.4,23c-23,11.5-95.8,63.3-162.9,115c-67.1,49.8-128.4,92-139.9,92C828.4-1721.8,820.7-1775.4,820.7-1840.6z"/></g></g>
</svg>