<?xml version="1.0" encoding="utf-8"?>
<!-- Generator: Adobe Illustrator 27.3.1, SVG Export Plug-In . SVG Version: 6.00 Build 0)  -->
<svg version="1.1" id="Layer_1" xmlns="http://www.w3.org/2000/svg" xmlns:xlink="http://www.w3.org/1999/xlink" x="0px" y="0px"
	 viewBox="0 0 24 24" style="enable-background:new 0 0 24 24;" xml:space="preserve">
<style type="text/css">
	.st0{fill:#FFFFFF;}
</style>
<g id="info">
</g>
<g id="icons">
	<path id="email" class="st0" d="M16.6,3.2H3.3C1.5,3.2,0,4.6,0,6.4v8.1c0,1.8,1.4,3.3,3.3,3.3h13.3c1.8,0,3.3-1.4,3.3-3.3V6.4
		C19.9,4.6,18.4,3.2,16.6,3.2z M17.9,7.9l-6.5,4.3c-0.5,0.3-0.9,0.4-1.4,0.4s-1-0.2-1.4-0.4L1.9,7.9C1.7,7.6,1.6,7.2,1.8,6.7
		C2,6.4,2.6,6.3,2.9,6.6l6.5,4.3c0.3,0.2,0.6,0.2,0.9,0L17,6.6c0.5-0.3,0.9-0.2,1.2,0.3C18.3,7.2,18.2,7.6,17.9,7.9z"/>
</g>
</svg>
