<?xml version="1.0" encoding="utf-8"?>
<!-- Generator: Adobe Illustrator 27.3.1, SVG Export Plug-In . SVG Version: 6.00 Build 0)  -->
<svg version="1.1" id="Layer_1" xmlns="http://www.w3.org/2000/svg" xmlns:xlink="http://www.w3.org/1999/xlink" x="0px" y="0px"
	 viewBox="0 0 24 24" style="enable-background:new 0 0 24 24;" xml:space="preserve">
<style type="text/css">
	.st0{fill:#FFFFFF;}
</style>
<path class="st0" d="M20,9.8c0-1.3-1-2.3-2.2-2.3c-0.5,0-1.1,0.2-1.5,0.6c-1.5-1-3.4-1.7-5.5-1.8l1-3.3l2.9,0.5c0.1,1,0.9,1.8,2,1.8
	l0,0l0,0c1.1,0,2-0.9,2-2s-0.9-2-2-2l0,0l0,0c-0.7,0-1.5,0.5-1.7,1.1l-4.1-0.8L9.5,6.3H9.5C7.2,6.4,5.2,7.1,3.7,8.1
	C3.4,7.7,2.8,7.5,2.3,7.5C1,7.5,0,8.5,0,9.8c0,0.9,0.5,1.6,1.2,2c0,0.2-0.1,0.5-0.1,0.6c0,3.4,4,6.1,8.8,6.1s8.8-2.7,8.8-6.1
	c0-0.2,0-0.5-0.1-0.6C19.5,11.4,20,10.6,20,9.8z M1.5,10.6c-0.3-0.2-0.5-0.5-0.5-0.9c0-0.6,0.5-1.1,1.1-1.1c0.3,0,0.5,0.1,0.6,0.2
	C2.2,9.4,1.7,10,1.5,10.6z M15.9,3.5c0-0.5,0.4-0.7,0.7-0.7s0.7,0.4,0.7,0.7c0,0.5-0.4,0.7-0.7,0.7S15.9,3.9,15.9,3.5z M5.6,11.5
	c0-0.8,0.6-1.5,1.5-1.5s1.5,0.6,1.5,1.5c0,0.8-0.6,1.5-1.5,1.5S5.6,12.2,5.6,11.5z M10,16.5c-2.1,0-3.4-1.3-3.5-1.4l0.5-0.5
	c0,0,1.1,1.1,2.9,1.1s2.8-1.1,2.9-1.1l0.5,0.5C13.4,15.2,12.1,16.4,10,16.5z M12.9,12.8c-0.8,0-1.5-0.6-1.5-1.5s0.6-1.5,1.5-1.5
	c0.8,0,1.5,0.6,1.5,1.5C14.4,12.2,13.7,12.8,12.9,12.8z M18.5,10.7c-0.3-0.6-0.7-1.3-1.3-1.8c0.2-0.2,0.5-0.3,0.6-0.3
	c0.6,0,1.1,0.5,1.1,1.1C19,10.2,18.8,10.5,18.5,10.7z"/>
</svg>
